<svg width="51" height="69" viewBox="0 0 51 69" fill="none" xmlns="http://www.w3.org/2000/svg">
<g filter="url(#filter0_d_36_182)">
<path d="M40.8763 3.14944C40.8763 2.63867 41.2903 2.22461 41.8011 2.22461H46.7378C47.2486 2.22461 47.6626 2.63867 47.6626 3.14944V64.5709C47.6626 64.673 47.5798 64.7559 47.4776 64.7559H41.0612C40.9591 64.7559 40.8763 64.673 40.8763 64.5709V3.14944Z" fill="url(#paint0_linear_36_182)"/>
</g>
<g filter="url(#filter1_d_36_182)">
<path d="M31.4239 31.2642C31.4239 30.7535 31.838 30.3394 32.3488 30.3394H37.2855C37.7962 30.3394 38.2103 30.7535 38.2103 31.2642V64.5709C38.2103 64.673 38.1275 64.7558 38.0253 64.7558H31.6089C31.5068 64.7558 31.4239 64.673 31.4239 64.5709V31.2642Z" fill="url(#paint1_linear_36_182)"/>
</g>
<g filter="url(#filter2_d_36_182)">
<path d="M21.9714 48.4725C21.9714 47.9617 22.3854 47.5477 22.8962 47.5477H27.8329C28.3437 47.5477 28.7577 47.9617 28.7577 48.4725V64.5709C28.7577 64.6731 28.6749 64.7559 28.5728 64.7559H22.1564C22.0542 64.7559 21.9714 64.6731 21.9714 64.5709V48.4725Z" fill="url(#paint2_linear_36_182)"/>
</g>
<g filter="url(#filter3_d_36_182)">
<path d="M12.5191 39.2625C12.5191 38.7517 12.9331 38.3376 13.4439 38.3376H18.3806C18.8913 38.3376 19.3054 38.7517 19.3054 39.2625V64.5709C19.3054 64.6731 19.2226 64.7559 19.1204 64.7559H12.704C12.6019 64.7559 12.5191 64.6731 12.5191 64.5709V39.2625Z" fill="url(#paint3_linear_36_182)"/>
</g>
<g filter="url(#filter4_d_36_182)">
<path d="M3.0665 55.5012C3.0665 54.9904 3.48056 54.5763 3.99133 54.5763H8.928C9.43877 54.5763 9.85283 54.9904 9.85283 55.5012V64.5709C9.85283 64.673 9.77002 64.7558 9.66787 64.7558H3.25146C3.14931 64.7558 3.0665 64.673 3.0665 64.5709V55.5012Z" fill="url(#paint4_linear_36_182)"/>
</g>
<defs>
<filter id="filter0_d_36_182" x="38.6567" y="0.559916" width="12.3353" height="68.0802" filterUnits="userSpaceOnUse" color-interpolation-filters="sRGB">
<feFlood flood-opacity="0" result="BackgroundImageFix"/>
<feColorMatrix in="SourceAlpha" type="matrix" values="0 0 0 0 0 0 0 0 0 0 0 0 0 0 0 0 0 0 127 0" result="hardAlpha"/>
<feOffset dx="0.554898" dy="1.1098"/>
<feGaussianBlur stdDeviation="1.38724"/>
<feComposite in2="hardAlpha" operator="out"/>
<feColorMatrix type="matrix" values="0 0 0 0 0.462745 0 0 0 0 0.556863 0 0 0 0 0.690196 0 0 0 0.25 0"/>
<feBlend mode="normal" in2="BackgroundImageFix" result="effect1_dropShadow_36_182"/>
<feBlend mode="normal" in="SourceGraphic" in2="effect1_dropShadow_36_182" result="shape"/>
</filter>
<filter id="filter1_d_36_182" x="29.2044" y="28.6747" width="12.3353" height="39.9654" filterUnits="userSpaceOnUse" color-interpolation-filters="sRGB">
<feFlood flood-opacity="0" result="BackgroundImageFix"/>
<feColorMatrix in="SourceAlpha" type="matrix" values="0 0 0 0 0 0 0 0 0 0 0 0 0 0 0 0 0 0 127 0" result="hardAlpha"/>
<feOffset dx="0.554898" dy="1.1098"/>
<feGaussianBlur stdDeviation="1.38724"/>
<feComposite in2="hardAlpha" operator="out"/>
<feColorMatrix type="matrix" values="0 0 0 0 0.462745 0 0 0 0 0.556863 0 0 0 0 0.690196 0 0 0 0.25 0"/>
<feBlend mode="normal" in2="BackgroundImageFix" result="effect1_dropShadow_36_182"/>
<feBlend mode="normal" in="SourceGraphic" in2="effect1_dropShadow_36_182" result="shape"/>
</filter>
<filter id="filter2_d_36_182" x="19.7518" y="45.883" width="12.3353" height="22.7572" filterUnits="userSpaceOnUse" color-interpolation-filters="sRGB">
<feFlood flood-opacity="0" result="BackgroundImageFix"/>
<feColorMatrix in="SourceAlpha" type="matrix" values="0 0 0 0 0 0 0 0 0 0 0 0 0 0 0 0 0 0 127 0" result="hardAlpha"/>
<feOffset dx="0.554898" dy="1.1098"/>
<feGaussianBlur stdDeviation="1.38724"/>
<feComposite in2="hardAlpha" operator="out"/>
<feColorMatrix type="matrix" values="0 0 0 0 0.462745 0 0 0 0 0.556863 0 0 0 0 0.690196 0 0 0 0.25 0"/>
<feBlend mode="normal" in2="BackgroundImageFix" result="effect1_dropShadow_36_182"/>
<feBlend mode="normal" in="SourceGraphic" in2="effect1_dropShadow_36_182" result="shape"/>
</filter>
<filter id="filter3_d_36_182" x="10.2995" y="36.673" width="12.3353" height="31.9672" filterUnits="userSpaceOnUse" color-interpolation-filters="sRGB">
<feFlood flood-opacity="0" result="BackgroundImageFix"/>
<feColorMatrix in="SourceAlpha" type="matrix" values="0 0 0 0 0 0 0 0 0 0 0 0 0 0 0 0 0 0 127 0" result="hardAlpha"/>
<feOffset dx="0.554898" dy="1.1098"/>
<feGaussianBlur stdDeviation="1.38724"/>
<feComposite in2="hardAlpha" operator="out"/>
<feColorMatrix type="matrix" values="0 0 0 0 0.462745 0 0 0 0 0.556863 0 0 0 0 0.690196 0 0 0 0.25 0"/>
<feBlend mode="normal" in2="BackgroundImageFix" result="effect1_dropShadow_36_182"/>
<feBlend mode="normal" in="SourceGraphic" in2="effect1_dropShadow_36_182" result="shape"/>
</filter>
<filter id="filter4_d_36_182" x="0.846906" y="52.9116" width="12.3353" height="15.7285" filterUnits="userSpaceOnUse" color-interpolation-filters="sRGB">
<feFlood flood-opacity="0" result="BackgroundImageFix"/>
<feColorMatrix in="SourceAlpha" type="matrix" values="0 0 0 0 0 0 0 0 0 0 0 0 0 0 0 0 0 0 127 0" result="hardAlpha"/>
<feOffset dx="0.554898" dy="1.1098"/>
<feGaussianBlur stdDeviation="1.38724"/>
<feComposite in2="hardAlpha" operator="out"/>
<feColorMatrix type="matrix" values="0 0 0 0 0.462745 0 0 0 0 0.556863 0 0 0 0 0.690196 0 0 0 0.25 0"/>
<feBlend mode="normal" in2="BackgroundImageFix" result="effect1_dropShadow_36_182"/>
<feBlend mode="normal" in="SourceGraphic" in2="effect1_dropShadow_36_182" result="shape"/>
</filter>
<linearGradient id="paint0_linear_36_182" x1="44.2694" y1="2.22461" x2="44.2694" y2="64.7559" gradientUnits="userSpaceOnUse">
<stop stop-color="#285192"/>
<stop offset="1" stop-color="#88C343"/>
</linearGradient>
<linearGradient id="paint1_linear_36_182" x1="34.8171" y1="30.3394" x2="34.8171" y2="64.7558" gradientUnits="userSpaceOnUse">
<stop stop-color="#285192"/>
<stop offset="1" stop-color="#88C343"/>
</linearGradient>
<linearGradient id="paint2_linear_36_182" x1="25.3646" y1="47.5477" x2="25.3646" y2="64.7559" gradientUnits="userSpaceOnUse">
<stop stop-color="#285192"/>
<stop offset="1" stop-color="#88C343"/>
</linearGradient>
<linearGradient id="paint3_linear_36_182" x1="15.9122" y1="38.3376" x2="15.9122" y2="64.7559" gradientUnits="userSpaceOnUse">
<stop stop-color="#285192"/>
<stop offset="1" stop-color="#88C343"/>
</linearGradient>
<linearGradient id="paint4_linear_36_182" x1="6.45967" y1="54.5763" x2="6.45967" y2="64.7558" gradientUnits="userSpaceOnUse">
<stop stop-color="#285192"/>
<stop offset="1" stop-color="#88C343"/>
</linearGradient>
</defs>
</svg>
