<svg width="58" height="69" viewBox="0 0 58 69" fill="none" xmlns="http://www.w3.org/2000/svg">
<g filter="url(#filter0_d_202_77)">
<path d="M36.4539 2.92483C36.4539 2.41406 36.8679 2 37.3787 2H42.3154C42.8262 2 43.2402 2.41406 43.2402 2.92483V64.3463C43.2402 64.4484 43.1574 64.5312 43.0553 64.5312H36.6389C36.5367 64.5312 36.4539 64.4484 36.4539 64.3463V2.92483Z" fill="url(#paint0_linear_202_77)"/>
</g>
<g filter="url(#filter1_d_202_77)">
<path d="M47.4479 30.9248C47.4479 30.4141 47.862 30 48.3728 30H53.3094C53.8202 30 54.2343 30.4141 54.2343 30.9248V64.2315C54.2343 64.3336 54.1515 64.4164 54.0493 64.4164H47.6329C47.5307 64.4164 47.4479 64.3336 47.4479 64.2315V30.9248Z" fill="url(#paint1_linear_202_77)"/>
</g>
<g filter="url(#filter2_d_202_77)">
<path d="M24.4539 47.9248C24.4539 47.4141 24.8679 47 25.3787 47H30.3154C30.8262 47 31.2402 47.4141 31.2402 47.9248V64.0232C31.2402 64.1254 31.1574 64.2082 31.0553 64.2082H24.6389C24.5367 64.2082 24.4539 64.1254 24.4539 64.0232V47.9248Z" fill="url(#paint2_linear_202_77)"/>
</g>
<g filter="url(#filter3_d_202_77)">
<path d="M13.4539 38.9248C13.4539 38.4141 13.8679 38 14.3787 38H19.3154C19.8262 38 20.2402 38.4141 20.2402 38.9248V64.2333C20.2402 64.3354 20.1574 64.4182 20.0553 64.4182H13.6389C13.5367 64.4182 13.4539 64.3354 13.4539 64.2333V38.9248Z" fill="url(#paint3_linear_202_77)"/>
</g>
<g filter="url(#filter4_d_202_77)">
<path d="M2.36163 54.9248C2.36163 54.4141 2.77569 54 3.28646 54H8.22314C8.73391 54 9.14797 54.4141 9.14797 54.9248V63.9945C9.14797 64.0967 9.06516 64.1795 8.963 64.1795H2.5466C2.44445 64.1795 2.36163 64.0967 2.36163 63.9945V54.9248Z" fill="url(#paint4_linear_202_77)"/>
</g>
<defs>
<filter id="filter0_d_202_77" x="34.2343" y="0.335306" width="12.3353" height="68.0802" filterUnits="userSpaceOnUse" color-interpolation-filters="sRGB">
<feFlood flood-opacity="0" result="BackgroundImageFix"/>
<feColorMatrix in="SourceAlpha" type="matrix" values="0 0 0 0 0 0 0 0 0 0 0 0 0 0 0 0 0 0 127 0" result="hardAlpha"/>
<feOffset dx="0.554898" dy="1.1098"/>
<feGaussianBlur stdDeviation="1.38724"/>
<feComposite in2="hardAlpha" operator="out"/>
<feColorMatrix type="matrix" values="0 0 0 0 0.462745 0 0 0 0 0.556863 0 0 0 0 0.690196 0 0 0 0.25 0"/>
<feBlend mode="normal" in2="BackgroundImageFix" result="effect1_dropShadow_202_77"/>
<feBlend mode="normal" in="SourceGraphic" in2="effect1_dropShadow_202_77" result="shape"/>
</filter>
<filter id="filter1_d_202_77" x="45.2283" y="28.3353" width="12.3353" height="39.9654" filterUnits="userSpaceOnUse" color-interpolation-filters="sRGB">
<feFlood flood-opacity="0" result="BackgroundImageFix"/>
<feColorMatrix in="SourceAlpha" type="matrix" values="0 0 0 0 0 0 0 0 0 0 0 0 0 0 0 0 0 0 127 0" result="hardAlpha"/>
<feOffset dx="0.554898" dy="1.1098"/>
<feGaussianBlur stdDeviation="1.38724"/>
<feComposite in2="hardAlpha" operator="out"/>
<feColorMatrix type="matrix" values="0 0 0 0 0.462745 0 0 0 0 0.556863 0 0 0 0 0.690196 0 0 0 0.25 0"/>
<feBlend mode="normal" in2="BackgroundImageFix" result="effect1_dropShadow_202_77"/>
<feBlend mode="normal" in="SourceGraphic" in2="effect1_dropShadow_202_77" result="shape"/>
</filter>
<filter id="filter2_d_202_77" x="22.2343" y="45.3353" width="12.3353" height="22.7572" filterUnits="userSpaceOnUse" color-interpolation-filters="sRGB">
<feFlood flood-opacity="0" result="BackgroundImageFix"/>
<feColorMatrix in="SourceAlpha" type="matrix" values="0 0 0 0 0 0 0 0 0 0 0 0 0 0 0 0 0 0 127 0" result="hardAlpha"/>
<feOffset dx="0.554898" dy="1.1098"/>
<feGaussianBlur stdDeviation="1.38724"/>
<feComposite in2="hardAlpha" operator="out"/>
<feColorMatrix type="matrix" values="0 0 0 0 0.462745 0 0 0 0 0.556863 0 0 0 0 0.690196 0 0 0 0.25 0"/>
<feBlend mode="normal" in2="BackgroundImageFix" result="effect1_dropShadow_202_77"/>
<feBlend mode="normal" in="SourceGraphic" in2="effect1_dropShadow_202_77" result="shape"/>
</filter>
<filter id="filter3_d_202_77" x="11.2343" y="36.3353" width="12.3353" height="31.9672" filterUnits="userSpaceOnUse" color-interpolation-filters="sRGB">
<feFlood flood-opacity="0" result="BackgroundImageFix"/>
<feColorMatrix in="SourceAlpha" type="matrix" values="0 0 0 0 0 0 0 0 0 0 0 0 0 0 0 0 0 0 127 0" result="hardAlpha"/>
<feOffset dx="0.554898" dy="1.1098"/>
<feGaussianBlur stdDeviation="1.38724"/>
<feComposite in2="hardAlpha" operator="out"/>
<feColorMatrix type="matrix" values="0 0 0 0 0.462745 0 0 0 0 0.556863 0 0 0 0 0.690196 0 0 0 0.25 0"/>
<feBlend mode="normal" in2="BackgroundImageFix" result="effect1_dropShadow_202_77"/>
<feBlend mode="normal" in="SourceGraphic" in2="effect1_dropShadow_202_77" result="shape"/>
</filter>
<filter id="filter4_d_202_77" x="0.142042" y="52.3353" width="12.3353" height="15.7285" filterUnits="userSpaceOnUse" color-interpolation-filters="sRGB">
<feFlood flood-opacity="0" result="BackgroundImageFix"/>
<feColorMatrix in="SourceAlpha" type="matrix" values="0 0 0 0 0 0 0 0 0 0 0 0 0 0 0 0 0 0 127 0" result="hardAlpha"/>
<feOffset dx="0.554898" dy="1.1098"/>
<feGaussianBlur stdDeviation="1.38724"/>
<feComposite in2="hardAlpha" operator="out"/>
<feColorMatrix type="matrix" values="0 0 0 0 0.462745 0 0 0 0 0.556863 0 0 0 0 0.690196 0 0 0 0.25 0"/>
<feBlend mode="normal" in2="BackgroundImageFix" result="effect1_dropShadow_202_77"/>
<feBlend mode="normal" in="SourceGraphic" in2="effect1_dropShadow_202_77" result="shape"/>
</filter>
<linearGradient id="paint0_linear_202_77" x1="39.8471" y1="2" x2="39.8471" y2="64.5312" gradientUnits="userSpaceOnUse">
<stop stop-color="#285192"/>
<stop offset="1" stop-color="#88C343"/>
</linearGradient>
<linearGradient id="paint1_linear_202_77" x1="50.8411" y1="30" x2="50.8411" y2="64.4164" gradientUnits="userSpaceOnUse">
<stop stop-color="#285192"/>
<stop offset="1" stop-color="#88C343"/>
</linearGradient>
<linearGradient id="paint2_linear_202_77" x1="27.8471" y1="47" x2="27.8471" y2="64.2082" gradientUnits="userSpaceOnUse">
<stop stop-color="#285192"/>
<stop offset="1" stop-color="#88C343"/>
</linearGradient>
<linearGradient id="paint3_linear_202_77" x1="16.8471" y1="38" x2="16.8471" y2="64.4182" gradientUnits="userSpaceOnUse">
<stop stop-color="#285192"/>
<stop offset="1" stop-color="#88C343"/>
</linearGradient>
<linearGradient id="paint4_linear_202_77" x1="5.7548" y1="54" x2="5.7548" y2="64.1795" gradientUnits="userSpaceOnUse">
<stop stop-color="#285192"/>
<stop offset="1" stop-color="#88C343"/>
</linearGradient>
</defs>
</svg>
