<svg width="69" height="69" viewBox="0 0 69 69" fill="none" xmlns="http://www.w3.org/2000/svg">
<g filter="url(#filter0_d_36_206)">
<path d="M60.043 9.73471C60.043 9.30275 60.3932 8.95257 60.8251 8.95257H65.3828C65.8148 8.95257 66.1649 9.30275 66.1649 9.73472V65.2055C66.1649 65.2918 66.0949 65.3619 66.0085 65.3619H60.1994C60.113 65.3619 60.043 65.2918 60.043 65.2055V9.73471Z" fill="url(#paint0_linear_36_206)"/>
<path d="M60.1212 9.73471C60.1212 9.34594 60.4364 9.03079 60.8251 9.03079H65.3828C65.7716 9.03079 66.0867 9.34595 66.0867 9.73472V65.2055C66.0867 65.2487 66.0517 65.2837 66.0085 65.2837H60.1994C60.1562 65.2837 60.1212 65.2487 60.1212 65.2055V9.73471Z" stroke="#285192" stroke-width="0.156429"/>
</g>
<g filter="url(#filter1_d_36_206)">
<path d="M51.5162 35.0971C51.5162 34.6651 51.8664 34.3149 52.2984 34.3149H56.856C57.288 34.3149 57.6382 34.6651 57.6382 35.0971V65.2055C57.6382 65.2919 57.5681 65.3619 57.4817 65.3619H51.6727C51.5863 65.3619 51.5162 65.2919 51.5162 65.2055V35.0971Z" fill="url(#paint1_linear_36_206)"/>
<path d="M51.5944 35.0971C51.5944 34.7083 51.9096 34.3931 52.2984 34.3931H56.856C57.2448 34.3931 57.56 34.7083 57.56 35.0971V65.2055C57.56 65.2487 57.5249 65.2837 57.4817 65.2837H51.6727C51.6295 65.2837 51.5944 65.2487 51.5944 65.2055V35.0971Z" stroke="#285192" stroke-width="0.156429"/>
</g>
<g filter="url(#filter2_d_36_206)">
<path d="M42.9892 50.6205C42.9892 50.1886 43.3394 49.8384 43.7714 49.8384H48.329C48.761 49.8384 49.1112 50.1886 49.1112 50.6205V65.2054C49.1112 65.2918 49.0411 65.3619 48.9547 65.3619H43.1457C43.0593 65.3619 42.9892 65.2918 42.9892 65.2054V50.6205Z" fill="url(#paint2_linear_36_206)"/>
<path d="M43.0674 50.6205C43.0674 50.2318 43.3826 49.9166 43.7714 49.9166H48.329C48.7178 49.9166 49.033 50.2317 49.033 50.6205V65.2054C49.033 65.2486 48.9979 65.2837 48.9547 65.2837H43.1457C43.1025 65.2837 43.0674 65.2486 43.0674 65.2054V50.6205Z" stroke="#285192" stroke-width="0.156429"/>
</g>
<g filter="url(#filter3_d_36_206)">
<path d="M34.4622 42.3122C34.4622 41.8803 34.8124 41.5301 35.2444 41.5301H39.802C40.234 41.5301 40.5842 41.8803 40.5842 42.3122V65.2055C40.5842 65.2919 40.5141 65.3619 40.4278 65.3619H34.6187C34.5323 65.3619 34.4622 65.2919 34.4622 65.2055V42.3122Z" fill="url(#paint3_linear_36_206)"/>
<path d="M34.5405 42.3122C34.5405 41.9235 34.8556 41.6083 35.2444 41.6083H39.802C40.1908 41.6083 40.506 41.9235 40.506 42.3122V65.2055C40.506 65.2487 40.4709 65.2837 40.4278 65.2837H34.6187C34.5755 65.2837 34.5405 65.2487 34.5405 65.2055V42.3122Z" stroke="#285192" stroke-width="0.156429"/>
</g>
<g filter="url(#filter4_d_36_206)">
<path d="M25.9352 56.9611C25.9352 56.5292 26.2854 56.179 26.7174 56.179H31.275C31.707 56.179 32.0572 56.5292 32.0572 56.9611V65.2055C32.0572 65.2919 31.9872 65.3619 31.9008 65.3619H26.0917C26.0053 65.3619 25.9352 65.2919 25.9352 65.2055V56.9611Z" fill="url(#paint4_linear_36_206)"/>
<path d="M26.0135 56.9611C26.0135 56.5724 26.3286 56.2572 26.7174 56.2572H31.275C31.6638 56.2572 31.979 56.5724 31.979 56.9611V65.2055C31.979 65.2487 31.944 65.2837 31.9008 65.2837H26.0917C26.0485 65.2837 26.0135 65.2487 26.0135 65.2055V56.9611Z" stroke="#285192" stroke-width="0.156429"/>
</g>
<g filter="url(#filter5_d_36_206)">
<mask id="path-11-inside-1_36_206" fill="white">
<path d="M37.6321 21.6812C36.8801 17.8926 34.8721 14.4683 31.9329 11.9623C28.9937 9.45619 25.295 8.01484 21.4351 7.8713C17.5752 7.72775 13.7797 8.8904 10.6624 11.1712C7.54517 13.4521 5.28839 16.7177 4.25706 20.4401C3.22573 24.1624 3.48016 28.1238 4.97919 31.6836C6.47821 35.2435 9.1342 38.1936 12.5176 40.0569C15.901 41.9202 19.8141 42.5878 23.6239 41.9517C27.4338 41.3155 30.9176 39.4129 33.5121 36.5514L20.7973 25.0227L37.6321 21.6812Z"/>
</mask>
<path d="M37.6321 21.6812C36.8801 17.8926 34.8721 14.4683 31.9329 11.9623C28.9937 9.45619 25.295 8.01484 21.4351 7.8713C17.5752 7.72775 13.7797 8.8904 10.6624 11.1712C7.54517 13.4521 5.28839 16.7177 4.25706 20.4401C3.22573 24.1624 3.48016 28.1238 4.97919 31.6836C6.47821 35.2435 9.1342 38.1936 12.5176 40.0569C15.901 41.9202 19.8141 42.5878 23.6239 41.9517C27.4338 41.3155 30.9176 39.4129 33.5121 36.5514L20.7973 25.0227L37.6321 21.6812Z" fill="url(#paint5_linear_36_206)" shape-rendering="crispEdges"/>
<path d="M37.6321 21.6812C36.8801 17.8926 34.8721 14.4683 31.9329 11.9623C28.9937 9.45619 25.295 8.01484 21.4351 7.8713C17.5752 7.72775 13.7797 8.8904 10.6624 11.1712C7.54517 13.4521 5.28839 16.7177 4.25706 20.4401C3.22573 24.1624 3.48016 28.1238 4.97919 31.6836C6.47821 35.2435 9.1342 38.1936 12.5176 40.0569C15.901 41.9202 19.8141 42.5878 23.6239 41.9517C27.4338 41.3155 30.9176 39.4129 33.5121 36.5514L20.7973 25.0227L37.6321 21.6812Z" stroke="#285192" stroke-width="0.312858" shape-rendering="crispEdges" mask="url(#path-11-inside-1_36_206)"/>
</g>
<g filter="url(#filter6_d_36_206)">
<path d="M43.0816 24.9133C43.5136 24.9133 43.8651 24.563 43.8504 24.1313C43.7568 21.3833 43.1701 18.6722 42.1162 16.128C40.9625 13.3427 39.2715 10.8119 37.1397 8.68008C35.0079 6.5483 32.4771 4.85728 29.6918 3.70357C27.1476 2.64971 24.4365 2.06303 21.6885 1.96937C21.2568 1.95466 20.9065 2.30622 20.9065 2.73819L20.9065 24.9133H43.0816Z" fill="url(#paint6_linear_36_206)" shape-rendering="crispEdges"/>
<path d="M43.7723 24.134C43.7854 24.5197 43.4711 24.8351 43.0816 24.8351H20.9847L20.9847 2.73819C20.9847 2.34869 21.3001 2.03439 21.6858 2.04754C24.4245 2.14088 27.1263 2.72556 29.6619 3.77583C32.4377 4.92561 34.9599 6.61087 37.0844 8.73538C39.2089 10.8599 40.8942 13.3821 42.044 16.1579C43.0942 18.6935 43.6789 21.3953 43.7723 24.134Z" stroke="#285192" stroke-width="0.156429" shape-rendering="crispEdges"/>
</g>
<defs>
<filter id="filter0_d_36_206" x="58.1658" y="7.54471" width="10.8148" height="61.1022" filterUnits="userSpaceOnUse" color-interpolation-filters="sRGB">
<feFlood flood-opacity="0" result="BackgroundImageFix"/>
<feColorMatrix in="SourceAlpha" type="matrix" values="0 0 0 0 0 0 0 0 0 0 0 0 0 0 0 0 0 0 127 0" result="hardAlpha"/>
<feOffset dx="0.469287" dy="0.938573"/>
<feGaussianBlur stdDeviation="1.17322"/>
<feComposite in2="hardAlpha" operator="out"/>
<feColorMatrix type="matrix" values="0 0 0 0 0.462745 0 0 0 0 0.556863 0 0 0 0 0.690196 0 0 0 0.25 0"/>
<feBlend mode="normal" in2="BackgroundImageFix" result="effect1_dropShadow_36_206"/>
<feBlend mode="normal" in="SourceGraphic" in2="effect1_dropShadow_36_206" result="shape"/>
</filter>
<filter id="filter1_d_36_206" x="49.6391" y="32.9071" width="10.8148" height="35.7398" filterUnits="userSpaceOnUse" color-interpolation-filters="sRGB">
<feFlood flood-opacity="0" result="BackgroundImageFix"/>
<feColorMatrix in="SourceAlpha" type="matrix" values="0 0 0 0 0 0 0 0 0 0 0 0 0 0 0 0 0 0 127 0" result="hardAlpha"/>
<feOffset dx="0.469287" dy="0.938573"/>
<feGaussianBlur stdDeviation="1.17322"/>
<feComposite in2="hardAlpha" operator="out"/>
<feColorMatrix type="matrix" values="0 0 0 0 0.462745 0 0 0 0 0.556863 0 0 0 0 0.690196 0 0 0 0.25 0"/>
<feBlend mode="normal" in2="BackgroundImageFix" result="effect1_dropShadow_36_206"/>
<feBlend mode="normal" in="SourceGraphic" in2="effect1_dropShadow_36_206" result="shape"/>
</filter>
<filter id="filter2_d_36_206" x="41.1121" y="48.4305" width="10.8148" height="20.2164" filterUnits="userSpaceOnUse" color-interpolation-filters="sRGB">
<feFlood flood-opacity="0" result="BackgroundImageFix"/>
<feColorMatrix in="SourceAlpha" type="matrix" values="0 0 0 0 0 0 0 0 0 0 0 0 0 0 0 0 0 0 127 0" result="hardAlpha"/>
<feOffset dx="0.469287" dy="0.938573"/>
<feGaussianBlur stdDeviation="1.17322"/>
<feComposite in2="hardAlpha" operator="out"/>
<feColorMatrix type="matrix" values="0 0 0 0 0.462745 0 0 0 0 0.556863 0 0 0 0 0.690196 0 0 0 0.25 0"/>
<feBlend mode="normal" in2="BackgroundImageFix" result="effect1_dropShadow_36_206"/>
<feBlend mode="normal" in="SourceGraphic" in2="effect1_dropShadow_36_206" result="shape"/>
</filter>
<filter id="filter3_d_36_206" x="32.5851" y="40.1222" width="10.8148" height="28.5247" filterUnits="userSpaceOnUse" color-interpolation-filters="sRGB">
<feFlood flood-opacity="0" result="BackgroundImageFix"/>
<feColorMatrix in="SourceAlpha" type="matrix" values="0 0 0 0 0 0 0 0 0 0 0 0 0 0 0 0 0 0 127 0" result="hardAlpha"/>
<feOffset dx="0.469287" dy="0.938573"/>
<feGaussianBlur stdDeviation="1.17322"/>
<feComposite in2="hardAlpha" operator="out"/>
<feColorMatrix type="matrix" values="0 0 0 0 0.462745 0 0 0 0 0.556863 0 0 0 0 0.690196 0 0 0 0.25 0"/>
<feBlend mode="normal" in2="BackgroundImageFix" result="effect1_dropShadow_36_206"/>
<feBlend mode="normal" in="SourceGraphic" in2="effect1_dropShadow_36_206" result="shape"/>
</filter>
<filter id="filter4_d_36_206" x="24.0581" y="54.7711" width="10.8148" height="13.8758" filterUnits="userSpaceOnUse" color-interpolation-filters="sRGB">
<feFlood flood-opacity="0" result="BackgroundImageFix"/>
<feColorMatrix in="SourceAlpha" type="matrix" values="0 0 0 0 0 0 0 0 0 0 0 0 0 0 0 0 0 0 127 0" result="hardAlpha"/>
<feOffset dx="0.469287" dy="0.938573"/>
<feGaussianBlur stdDeviation="1.17322"/>
<feComposite in2="hardAlpha" operator="out"/>
<feColorMatrix type="matrix" values="0 0 0 0 0.462745 0 0 0 0 0.556863 0 0 0 0 0.690196 0 0 0 0.25 0"/>
<feBlend mode="normal" in2="BackgroundImageFix" result="effect1_dropShadow_36_206"/>
<feBlend mode="normal" in="SourceGraphic" in2="effect1_dropShadow_36_206" result="shape"/>
</filter>
<filter id="filter5_d_36_206" x="0.505369" y="6.29514" width="40.2553" height="40.5838" filterUnits="userSpaceOnUse" color-interpolation-filters="sRGB">
<feFlood flood-opacity="0" result="BackgroundImageFix"/>
<feColorMatrix in="SourceAlpha" type="matrix" values="0 0 0 0 0 0 0 0 0 0 0 0 0 0 0 0 0 0 127 0" result="hardAlpha"/>
<feOffset dy="1.56429"/>
<feGaussianBlur stdDeviation="1.56429"/>
<feComposite in2="hardAlpha" operator="out"/>
<feColorMatrix type="matrix" values="0 0 0 0 0.462745 0 0 0 0 0.556863 0 0 0 0 0.690196 0 0 0 0.25 0"/>
<feBlend mode="normal" in2="BackgroundImageFix" result="effect1_dropShadow_36_206"/>
<feBlend mode="normal" in="SourceGraphic" in2="effect1_dropShadow_36_206" result="shape"/>
</filter>
<filter id="filter6_d_36_206" x="18.4036" y="0.0917795" width="27.6373" height="27.6373" filterUnits="userSpaceOnUse" color-interpolation-filters="sRGB">
<feFlood flood-opacity="0" result="BackgroundImageFix"/>
<feColorMatrix in="SourceAlpha" type="matrix" values="0 0 0 0 0 0 0 0 0 0 0 0 0 0 0 0 0 0 127 0" result="hardAlpha"/>
<feOffset dx="-0.156429" dy="0.469287"/>
<feGaussianBlur stdDeviation="1.17322"/>
<feComposite in2="hardAlpha" operator="out"/>
<feColorMatrix type="matrix" values="0 0 0 0 0.0925694 0 0 0 0 0.138983 0 0 0 0 0.258333 0 0 0 0.1 0"/>
<feBlend mode="normal" in2="BackgroundImageFix" result="effect1_dropShadow_36_206"/>
<feBlend mode="normal" in="SourceGraphic" in2="effect1_dropShadow_36_206" result="shape"/>
</filter>
<linearGradient id="paint0_linear_36_206" x1="63.104" y1="8.95257" x2="63.104" y2="65.3619" gradientUnits="userSpaceOnUse">
<stop stop-color="#285192"/>
<stop offset="1" stop-color="#88C343"/>
</linearGradient>
<linearGradient id="paint1_linear_36_206" x1="54.5772" y1="34.3149" x2="54.5772" y2="65.3619" gradientUnits="userSpaceOnUse">
<stop stop-color="#285192"/>
<stop offset="1" stop-color="#88C343"/>
</linearGradient>
<linearGradient id="paint2_linear_36_206" x1="46.0502" y1="49.8384" x2="46.0502" y2="65.3619" gradientUnits="userSpaceOnUse">
<stop stop-color="#285192"/>
<stop offset="1" stop-color="#88C343"/>
</linearGradient>
<linearGradient id="paint3_linear_36_206" x1="37.5232" y1="41.5301" x2="37.5232" y2="65.3619" gradientUnits="userSpaceOnUse">
<stop stop-color="#285192"/>
<stop offset="1" stop-color="#88C343"/>
</linearGradient>
<linearGradient id="paint4_linear_36_206" x1="28.9962" y1="56.179" x2="28.9962" y2="65.3619" gradientUnits="userSpaceOnUse">
<stop stop-color="#285192"/>
<stop offset="1" stop-color="#88C343"/>
</linearGradient>
<linearGradient id="paint5_linear_36_206" x1="20.7973" y1="7.85944" x2="20.5695" y2="50.1573" gradientUnits="userSpaceOnUse">
<stop stop-color="#285192" stop-opacity="0.17"/>
<stop offset="1" stop-color="#88C343"/>
</linearGradient>
<linearGradient id="paint6_linear_36_206" x1="32.3851" y1="1.95605" x2="32.294" y2="31.9189" gradientUnits="userSpaceOnUse">
<stop stop-color="#285192"/>
<stop offset="0.901042" stop-color="#88C343" stop-opacity="0.5"/>
</linearGradient>
</defs>
</svg>
